<?xml version="1.0" encoding="UTF-8"?>
<svg id="Layer_2" data-name="Layer 2" xmlns="http://www.w3.org/2000/svg" viewBox="0 0 250.76 215.47">
  <defs>
    <style>
      .cls-1, .cls-2 {
        font-family: DIN-Bold, DIN;
        font-size: 11.76px;
        font-weight: 700;
      }

      .cls-1, .cls-2, .cls-3 {
        fill: #2e3a59;
      }

      .cls-1, .cls-4 {
        letter-spacing: .02em;
      }

      .cls-5 {
        letter-spacing: .02em;
      }

      .cls-6 {
        letter-spacing: .01em;
      }
    </style>
  </defs>
  <g id="Layer_1-2" data-name="Layer 1">
    <g>
      <g>
        <path class="cls-3" d="M8.13,101.38c-.66-.16-1.41-.36-2.05-.52.39-1.6.96-3.98,1.38-5.74,1.99-.25,6.79-.69,10.13-1l.04-.18c-2.82-1.84-6.17-4-8.55-5.57.39-1.6.91-3.77,1.28-5.3.64.15,1.39.36,2.05.52l-.21,1.16s.03.08.07.09c3.28.76,7.21,1.71,10.67,2.52l.37-1.24c.59.14,1.3.31,1.92.48-.18.75-.45,1.87-.66,2.72-.27,1.12-.58,2.4-.81,3.36-.62-.15-1.32-.34-1.92-.49l.24-1.32c.02-.07-.03-.08-.07-.09-2.41-.55-4.95-1.14-7.73-1.76l-.04.18c3.64,2.35,6.15,4.21,8.09,5.67-.08.34-.29,1.29-.46,1.99-2.74.45-5.69.83-10.09,1.2l-.05.21c2.82.73,5.39,1.42,8.03,2.1l.48-1.58c.59.14,1.3.31,1.92.49-.2.82-.48,1.99-.71,2.95-.2.85-.38,1.58-.56,2.33-.62-.15-1.33-.32-1.92-.46l.22-1.21c-.01-.05-.03-.08-.08-.09-3.26-.81-7.41-1.86-10.63-2.68l-.37,1.24Z"/>
        <path class="cls-3" d="M25.46,81.67c-1.9.72-3.87.59-6.15-.43-2.83-1.27-4.45-3.69-4.74-5.94-.22-1.7.03-3.18.77-4.83.61-1.35,1.51-2.44,2.72-3.24,1.79-1.18,4.51-1.26,7.02-.13,2.08.93,3.97,2.65,4.71,4.74.64,1.91.48,3.88-.45,5.96-.85,1.91-2.33,3.31-3.88,3.88ZM27.65,74.3c-.63-1.18-2.09-2.17-3.87-2.97-1.74-.78-3.45-1.11-4.67-1.03-1.03.05-1.75.56-2.1,1.35-.39.88-.34,1.63.04,2.39.49.97,1.81,2.12,3.85,3.04,2.17.97,3.7,1.29,4.96.96,1-.27,1.54-.86,1.84-1.52.31-.69.46-1.31-.04-2.21Z"/>
        <path class="cls-3" d="M31.31,60.63c1.49.99,2.32,1.18,3.15,1.08.69-.11,1.22-.49,1.67-1.15.48-.72.47-1.35.3-1.94-.21-.79-1.17-1.73-2.46-2.59-1.59-1.05-3.98-2.64-5.61-3.67-.04-.03-.09,0-.11.04l-.97,1.33c-.53-.35-1.1-.76-1.63-1.11.48-.73,1.16-1.74,1.73-2.61.55-.82,1.08-1.63,1.55-2.33.53.35,1.1.73,1.63,1.11l-.55.96,5.31,3.61c2.35,1.56,3.35,3.24,3.58,4.47.28,1.23.2,2.59-1.01,4.41-1.14,1.72-2.28,2.72-3.81,3.11-1.76.44-3.51-.32-4.96-1.29l-5.88-3.9c-.06-.04-.13-.06-.18.02l-.61.84c-.55-.36-1.12-.74-1.63-1.11.51-.76,1.24-1.86,1.79-2.7.69-1.04,1.43-2.16,2.01-3.04.51.34,1.12.74,1.65,1.12l-.84,1.36,5.88,3.98Z"/>
        <path class="cls-3" d="M42.18,52.27s.03-.07-.02-.12l-8.15-7.5-.96.97c-.48-.45-1-.93-1.45-1.37.89-.97,2.14-2.31,3.07-3.31,3.1.43,8.41,1.34,12.06,1.99l.1-.1c-2-1.79-4.02-3.65-6.04-5.49l-1.2,1.23c-.47-.43-1-.96-1.44-1.39.62-.67,1.37-1.48,2.08-2.24.56-.6,1.2-1.33,1.68-1.85.47.43.98.91,1.45,1.37l-.65.81s-.05.08.02.15l9.4,8.82c-.18.51-.81,1.53-1.62,2.41-2.42-.12-6.71-.5-11.51-1.27l-.09.14c1.76,1.63,3.42,3.19,5.11,4.79l1.22-1.25c.48.45,1.02.94,1.47,1.39-.67.72-1.53,1.66-2.28,2.47-.53.57-1.05,1.17-1.5,1.66-.48-.45-1-.93-1.47-1.39l.75-.91Z"/>
        <path class="cls-3" d="M57.18,37.54s.03-.08,0-.12l-6.81-8.65c-.7.55-.97.86-1.2,1.1-.22.26-.17.43-.06.65l1.06,2.04c-.68.47-1.44.98-2.09,1.38-.92-1.31-1.83-2.63-2.71-3.94.39-.31,1.1-.84,1.75-1.35.48-.38,2.94-2.31,3.62-2.85.57-.45,2.96-2.33,3.46-2.72.72-.6,1.37-1.11,1.74-1.4,1.05,1.18,2.11,2.38,3.12,3.59-.55.55-1.21,1.16-1.83,1.74l-1.69-1.54c-.2-.17-.34-.21-.63-.07-.28.13-.53.27-1.35.91l6.78,8.73,1.39-.97c.39.5.83,1.05,1.23,1.6-.78.61-1.9,1.47-2.88,2.24-.89.7-1.96,1.58-2.89,2.3-.42-.54-.83-1.09-1.23-1.6l1.21-1.04Z"/>
        <path class="cls-3" d="M65.29,31.31s.08-.1.06-.17c-.68-4.01-1.71-9.86-2.43-13.88.34-.25,1.28-.8,2.76-1.67,3.17,2.72,7.61,6.64,10.63,9.25l1.08-.52c.32.55.66,1.14.98,1.72-.67.39-1.66.97-2.44,1.42-1.06.62-2.33,1.36-3.27,1.91-.33-.57-.68-1.16-.99-1.74l.96-.64s.06-.09,0-.14c-.28-.25-.84-.79-1.14-1.02-.07-.07-.12-.07-.2-.02l-3.73,2.24c.16.51.33,1.17.5,1.64l1.15-.59c.32.55.66,1.14.98,1.72-.81.47-1.87,1.09-2.86,1.67-.67.39-1.38.81-1.99,1.16-.33-.57-.66-1.17-.96-1.73l.9-.61ZM65.78,20.6c.41,1.77.86,3.66,1.24,5.29.03.09.05.13.11.1l2.84-1.66c-1.21-1.09-2.67-2.47-4.09-3.79l-.1.06Z"/>
        <path class="cls-3" d="M75.1,13.1c-.26-.6-.54-1.25-.77-1.85.91-.39,2.25-.96,3.26-1.4,1.06-.45,2.29-.98,3.2-1.37.24.56.52,1.26.77,1.85l-1.33.65s-.03.04,0,.13l4.27,10.14,1.49-.53c.25.58.53,1.23.78,1.87-.89.38-2.17.91-3.25,1.37-.99.43-2.2.97-3.19,1.39-.26-.6-.52-1.28-.78-1.89l1.24-.58s.07-.08.05-.12l-4.36-10.16-1.37.51Z"/>
        <path class="cls-3" d="M89.66,19.15s.06-.04.04-.11l-3.03-10.65-1.32.32c-.18-.63-.37-1.31-.52-1.93,1.27-.36,3.03-.85,4.34-1.22,2.42,1.98,6.47,5.53,9.24,8l.14-.04c-.77-2.57-1.52-5.21-2.28-7.83l-1.66.42c-.17-.61-.35-1.34-.5-1.94.88-.25,1.95-.55,2.94-.83.79-.22,1.71-.51,2.39-.7.17.61.36,1.29.52,1.93l-.98.35s-.08.05-.06.14l3.41,12.42c-.42.34-1.49.88-2.64,1.21-2-1.37-5.46-3.93-9.16-7.09l-.15.07c.65,2.31,1.25,4.51,1.86,6.76l1.69-.43c.18.63.38,1.33.53,1.95-.95.27-2.17.61-3.24.91-.75.21-1.51.45-2.14.63-.18-.63-.37-1.31-.53-1.95l1.11-.39Z"/>
        <path class="cls-3" d="M124.83,2.13c-.54,1.75-1.22,4.02-1.9,5.97-.77,2.3-1.7,5.25-2.58,7.7-.23.06-1.5.13-3.29.22-1.05-2.42-2.23-5.2-3.14-7.6-.66-1.78-1.43-3.76-2.06-5.52,0-.05-.05-.09-.12-.09h-1.15c-.03-.64-.05-1.35-.08-1.98.87-.05,2.16-.12,3.17-.17,1.41-.08,3.08-.16,4.32-.23.03.61.07,1.36.08,2l-1.59.16c.29,1,.93,3.29,1.18,4.08.51,1.57,1.02,3.27,1.66,5.12h.16c.39-1.49.68-2.71.95-3.83.31-1.31,1.09-4.34,1.24-5.53,0-.05-.03-.12-.08-.11l-1.37.03c-.06-.66-.08-1.41-.11-2.02,1.01-.05,2.3-.12,3.52-.19.75-.04,1.6-.09,2.3-.12.03.63.07,1.34.08,2l-1.22.14Z"/>
        <path class="cls-3" d="M129.45,2.28c.04-.66.09-1.36.16-1.99.98.07,2.44.17,3.54.24,1.15.08,2.49.17,3.47.24-.04.61-.12,1.36-.16,1.99l-1.48-.03s-.05.02-.05.11l-.83,10.98,1.57.2c-.04.63-.09,1.34-.16,2.02-.96-.07-2.35-.18-3.52-.27-1.08-.07-2.39-.14-3.47-.21.05-.66.12-1.38.16-2.04l1.36.05s.1-.04.1-.09l.76-11.03-1.45-.17Z"/>
        <path class="cls-3" d="M139.89,14.46c.07.01.12-.02.13-.07l2.03-10.89-1.33-.3c.13-.67.28-1.36.42-1.98.85.16,2.06.38,3.03.56.72.13,4.86.9,5.41,1.01.97.18,1.78.31,2.29.4-.16,1.38-.33,2.79-.53,4.16-.69-.03-1.51-.09-2.31-.17l-.04-1.85c0-.22-.07-.37-.39-.48-.32-.11-.97-.32-2.4-.59-.07-.01-.16-.03-.23-.04l-.84,4.39c.72.13,1.39.24,2.04.33.14,0,.29-.14.38-.38l.3-.85c.74.14,1.5.3,2.17.45-.13.72-.32,1.57-.47,2.4-.16.83-.33,1.66-.45,2.26-.68-.08-1.45-.2-2.19-.34l.06-.95c.04-.35-.05-.51-.26-.55-.64-.14-1.29-.29-1.96-.41l-.79,4.09c-.08.44.07.54,1.11.73.95.18,1.54.21,1.88.21.24-.03.38-.12.52-.36l1.02-1.72c.76.26,1.54.57,2.19.84-.5,1.29-1.06,2.6-1.61,3.91-1.16-.22-4.37-.84-7.58-1.44-1.06-.2-2.25-.39-3.17-.57.12-.65.25-1.34.39-1.96l1.19.15Z"/>
        <path class="cls-3" d="M174.65,13c-1.29,1.85-2.38,3.43-3.5,5.02-1.4,2.01-3.05,4.21-4.57,6.27-.37-.09-1.58-.54-3.14-1.12.14-2.99.25-5.3.59-8.71l-.13-.05c-1.89,2.45-3.84,4.84-5.48,6.84-.46-.12-1.87-.65-3.14-1.12.35-2.76.66-5.15,1.03-7.67.25-1.89.58-3.9.9-5.86.01-.1-.02-.13-.07-.15l-1.06-.45c.23-.62.48-1.28.72-1.86.79.3,1.89.71,2.75,1.03,1.34.5,2.82,1.05,4.01,1.49-.22.6-.48,1.28-.73,1.89l-1.56-.53c-.32,1.19-.72,2.74-1,3.97-.41,1.7-.8,3.36-1.23,5.11l.2.07c1.14-1.58,5.02-7.14,6.15-8.75.42.08,2.19.72,2.91,1.01-.25,2.09-.92,8.11-1.25,10.62l.2.07c.8-1.41,1.59-2.79,2.13-3.77.58-1.09,1.59-2.92,2.32-4.33.05-.06.04-.11-.02-.13l-1.42-.58c.23-.62.49-1.32.73-1.89,1.06.39,2.27.85,3.44,1.28.66.25,1.43.53,2.05.76-.21.57-.48,1.28-.73,1.89l-1.07-.35Z"/>
        <path class="cls-3" d="M181.69,29.19c-.02.07-.04.2,0,.25.18.49.56.9,1.05,1.23.47.31,1.12.57,1.63.51.45-.04.86-.28,1.17-.75.65-.98.29-1.5-.87-3.08-1.49-2.05-2.23-4.26-.96-6.18.8-1.22,2.05-1.86,3.26-2.04,1.38-.21,3.12.26,5.01,1.5,1.12.74,2.05,1.58,2.38,2.08-.67,1.27-1.37,2.54-2.08,3.78-.67-.3-1.45-.7-2.19-1.08l.75-2.12c.02-.07.03-.12.01-.19-.11-.35-.4-.72-.77-.96-.47-.31-.94-.45-1.41-.42-.39.03-.91.22-1.27.77-.65.98-.35,1.46,1.04,3.28,1.69,2.18,2.09,4,.86,5.86-.82,1.24-2.09,2.06-3.53,2.18s-2.98-.36-4.88-1.62c-.82-.54-2.15-1.56-2.76-2.39.66-1.34,1.33-2.65,1.98-3.93.72.28,1.57.65,2.29,1.01l-.73,2.3Z"/>
        <path class="cls-3" d="M200.37,29.24c2.02.12,4,1.04,5.58,2.42,1.1.96,1.8,1.77,2.1,2.31-.93,1.28-1.9,2.56-2.9,3.84-.66-.42-1.38-.89-2.07-1.38l1.2-2.23c.04-.09.12-.21.08-.31-.09-.29-.26-.63-.63-.96-.57-.5-1.39-.81-2.33-.73-1.49.13-2.94.93-4.24,2.41-1.33,1.52-1.88,2.79-1.74,4.05.1.96.72,1.92,1.43,2.54.79.7,2.39,1.63,3.17,1.91-.31.64-.78,1.38-1.12,1.92-1.52-.55-3.47-1.64-4.37-2.43-1.36-1.19-2.48-2.7-2.85-4.35-.4-1.79.05-4.09,1.68-5.94,2.2-2.51,4.81-3.2,7.01-3.08Z"/>
        <path class="cls-3" d="M202.68,47.12c.06.04.1.04.15,0l8.5-7.03-.77-1.04c.49-.41,1.05-.87,1.56-1.26.6.72,1.49,1.79,2.16,2.61.72.87,1.56,1.88,2.14,2.59-.49.41-1.05.87-1.56,1.26l-.92-1.01s-.03,0-.1.06l-3.19,2.61s-.04.06-.02.08l3.04,3.71,3.35-2.74-.86-1.15c.51-.42,1.05-.87,1.56-1.26.61.74,1.48,1.79,2.25,2.72.64.78,1.44,1.74,2.02,2.45-.47.39-1.07.88-1.56,1.26l-.79-.84s-.06-.04-.12,0l-8.54,6.98.75,1.06c-.49.41-1.07.85-1.59,1.25-.58-.71-1.41-1.74-2.02-2.48-.79-.96-1.67-1.98-2.34-2.79.51-.42,1.07-.88,1.57-1.27l1.01,1.12s.08.06.13.01l3.43-2.87s.06-.08.03-.11l-3.09-3.67-3.55,2.91.86,1.18c-.49.41-1.02.87-1.56,1.29-.6-.72-1.45-1.79-2.19-2.68-.64-.78-1.49-1.76-2.12-2.52.51-.42,1.05-.87,1.56-1.29l.82.88Z"/>
        <path class="cls-3" d="M214.2,62.57c.53-1.96,1.81-3.47,3.97-4.71,2.69-1.54,5.61-1.42,7.59-.33,1.5.82,2.55,1.9,3.45,3.47.74,1.29,1.09,2.66,1.02,4.1-.1,2.14-1.64,4.38-4.03,5.75-1.98,1.13-4.48,1.64-6.6,1.01-1.92-.61-3.41-1.89-4.55-3.87-1.04-1.82-1.3-3.84-.85-5.42ZM218.86,68.68c1.33.19,2.99-.41,4.68-1.38,1.65-.95,2.92-2.13,3.58-3.16.56-.86.58-1.74.14-2.49-.48-.84-1.11-1.23-1.95-1.38-1.07-.17-2.78.21-4.72,1.32-2.06,1.18-3.23,2.23-3.69,3.44-.37.97-.22,1.75.14,2.38.37.65.79,1.15,1.81,1.27Z"/>
        <path class="cls-3" d="M222.7,78.69c.86-1.84,2.38-3.11,4.72-3.96,2.92-1.06,5.77-.44,7.53.98,1.34,1.07,2.18,2.31,2.8,4.01.5,1.39.61,2.8.3,4.22-.47,2.09-2.37,4.03-4.95,4.97-2.14.78-4.69.85-6.67-.14-1.79-.93-3.04-2.45-3.81-4.6-.71-1.97-.62-4,.09-5.48ZM226.24,85.51c1.28.41,3.01.11,4.85-.55,1.79-.65,3.25-1.6,4.07-2.5.7-.75.87-1.61.57-2.43-.33-.91-.88-1.41-1.69-1.69-1.03-.35-2.77-.27-4.87.49-2.23.81-3.56,1.64-4.23,2.75-.53.89-.51,1.69-.27,2.37.26.71.58,1.26,1.56,1.56Z"/>
        <path class="cls-3" d="M239.12,91.57c.65-.13,1.34-.24,1.97-.35.18.92.44,2.19.65,3.28.21,1.04.47,2.33.69,3.44-.6.12-1.34.24-1.99.37l-.34-1.44s-.04-.09-.11-.07l-10.41,2.03c-.44.09-.51.1-.3,1.16.18.9.39,1.48.53,1.79.09.2.25.29.52.33l2.54.33c.02.81.01,1.63,0,2.38-1.56,0-3.14,0-4.71-.07-.2-1.13-.8-4.23-1.44-7.44-.21-1.06-.46-2.21-.66-3.18.65-.13,1.34-.24,1.96-.37l.29,1.19s.07.08.13.07l10.87-2.15-.19-1.31Z"/>
      </g>
      <g>
        <path class="cls-3" d="M216.54,120.12c-1.61-1.5-2.94-3.12-4.08-4.86-.39-.59-1.01-1.11-1.65-1.56-1.87-1.3-3.64-2.66-5.12-4.24-.67-.71-1.6-1.26-2.41-1.88-.19-.15-.46-.25-.6-.42-1.14-1.29-2.29-2.57-3.37-3.89-.62-.77-1.3-1.42-2.38-1.85-1.27-.51-2.23-1.28-3.07-2.21-1.07-1.18-2.18-2.31-2.74-3.7-.09-.23-.27-.48-.5-.65-1.85-1.35-3.51-2.95-5.64-3.95-2.27-1.07-4.04-2.4-5.67-3.94-.54-.51-1.21-1.06-1.97-1.29-1.63-.5-2.66-1.46-3.72-2.42-.96-.86-1.79-1.81-2.75-2.67-2.15-1.92-4.46-3.71-7.13-5.21-1.07-.6-2.21-.88-3.54-.59-1.23.27-2.49.46-3.73.71-.31.06-.61.2-.86.36-1.51.94-3.01,1.89-4.52,2.84-.95-.66-1.02-.66-1.03-1.32-.03-1.19-.85-2.05-1.82-2.88-.58-.5-1.18-1-1.65-1.55-1.33-1.55-2.7-3.07-4.56-4.29-.87-.57-1.71-1.19-2.46-1.85-1.55-1.36-3.05-2.75-4.55-4.15-2.16-2.01-4.34-4.01-6.44-6.06-1.22-1.19-2.43-2.35-4.16-3.17-1.94-.92-3.18-.94-4.86.21-.41.28-.83.55-1.29.78-1.31.63-2.53,1.32-3.3,2.4-.23.32-.63.59-1.02.82-3.69,2.21-6.86,4.84-10.12,7.4-1.07.84-2.18,1.65-3.24,2.5-1.94,1.55-4.01,3.02-5.17,5.03-.66,1.15-1.65,2.06-2.86,2.88-1.22.83-2.63,1.54-3.35,2.74-.6.99-1.2,1.99-1.84,2.97-.29.45-.57.96-1.03,1.28-1.91,1.29-3.9,2.52-6.03,3.89-.84-.96-1.57-1.73-2.22-2.55-1.47-1.83-3.44-3.2-6.08-4.25-.17.21-.27.37-.41.5-2.14,1.93-4.44,3.71-7.25,5.09-1.08.53-1.91,1.37-2.83,2.08-.69.53-1.37,1.08-2.01,1.65-.68.59-1.5,1.15-1.92,1.84-.48.79-1.03,1.48-1.89,2.02-1.59,1.02-3.28,1.97-4.25,3.45-.07.11-.22.18-.34.27-3.02,2.2-6.06,4.39-9.06,6.61-1.3.96-2.57,1.96-3.73,3.01-1.94,1.77-3.8,3.59-5.67,5.4-.11.11-.09.3-.17.62,1.44-.08,2.65-.36,3.83-.76,1.86-.64,2.82-1.94,3.88-3.17,1.1-1.28,1.77-2.8,3.48-3.75.09-.05.14-.13.22-.19,1.28-1.09,2.55-2.17,3.83-3.25.11-.09.25-.16.39-.23,1.4-.66,2.75-1.38,4.21-1.96,1.64-.65,2.75-1.61,3.51-2.88.31-.52.85-.97,1.35-1.41,1.11-.98,2.44-1.85,3.36-2.92,1.83-2.14,4.06-3.96,6.62-5.57.59-.37,1.18-.71,2.05-.74-.17.54-.31,1.01-.47,1.47-.18.52-.42,1.03-.56,1.55-.06.23-.06.53.07.74.47.7.92,1.42,1.54,2.04.6.59,1.09,1.12.81,1.93-.09.27.16.62.22.8-.2.3-.36.54-.52.78.85.17,1.51.29,2.2.43,1.65-.63.35-1.9.92-2.81.18-.28-.17-.8-.39-1.17-.12-.2-.49-.31-.72-.48-.23-.17-.53-.34-.62-.56-.38-.86-.72-1.74-1.04-2.62-.1-.28-.12-.58-.17-.86.31.17.41.37.56.55,1.64,1.89,3.19,3.82,3.67,6.13.03.16.15.32.26.46.56.75,1.11,1.51.47,2.39,1.57.35,1.66.43,1.81,1.1.19.81-.1,1.41-1.42,1.67.69.87-.11,1.35-.8,1.96.48.51.95,1,1.41,1.49-.37.36-.82.62-.95.95-.22.54-.54,1.26-.26,1.67.74,1.1,1.18,2.37,2.54,3.2.85.52,1.32,1.24,1.44,2.07.11.74.58,1.35,1.43,1.58,1.77.47,2.91,1.42,3.88,2.58.33.39.73.74,1.15,1.07.26.2.62.42.94.43,1.68.06,3.39.23,5.03.04,2.05-.23,4.01-.2,6.01.14,2.67.44,5.39.73,7.88,1.7,1.01.4,2.1.74,3.2.93,3.14.56,5.95,1.69,8.71,2.91,1.17.52,2.22,1.21,3.32,1.82,1.51.83,3.01,1.66,4.53,2.47.67.36,1.36.44,2.14-.21-2.13-1.56-4.16-3.09-6.25-4.56-.85-.6-1.82-1.09-2.08-2.04-.05-.18-.27-.38-.49-.49-2.19-1.03-3.77-2.57-5.45-4-2.73-2.31-5.64-4.47-8.79-6.44-1.6-1.01-3.44-1.85-4.14-3.49-.05-.11-.19-.2-.31-.29-1.01-.71-1.97-1.46-3.04-2.11-2.09-1.27-3.93-2.67-4.85-4.66-.12-.27-.38-.51-.62-.74-2.93-2.79-5.87-5.56-8.79-8.35-.26-.25-.43-.54-.64-.82.63-.45,1.32-.74,1.64-1.19,1.11-1.55,2.94-2.6,4.47-3.85.59-.48.97-.95,1.19-1.59.5-1.44,1.36-2.74,2.88-3.73.3-.34.56-.7.92-1,.74-.61,1.61-1.14,2.29-1.79,4.07-3.87,8.58-7.42,13.54-10.62.37-.24.84-.48,1.02-.8.9-1.56,2.61-2.47,4.4-3.29,1.7-.78,3.01-1.81,3.78-3.22.45-.82,1.27-1.19,2.32-1.34.38,1.12.75,2.16,1.1,3.21.17.51.18.97-.44,1.37-.23.14-.26.51-.3.78-.06.41-.04.82-.05,1.23-.01.38-.08.76-.02,1.13.08.51.44.76,1.15.53.19-.06.39-.1.8-.21.08.57.42,1.33.17,1.47-1,.56-.53,1.15-.43,1.76.13.01.24.03.37.04-.19.43-.39.86-.57,1.29-.08.19-.07.41-.05.62.11,1.04.23,2.08.36,3.12.04.33.03.7.22.98,1.04,1.56,1.72,3.27,3.53,4.49.38.26.41.82.64,1.22.55.99.5,2.33,2.4,2.58.1-.06.2-.12.3-.18.07-.03.15-.05.23-.08.04.18.08.35.13.53.33,1.23,1.07,2.49.92,3.68-.15,1.15.25,2.03.76,2.99.21.39.65.79.27,1.28-1.02.06-1.04-1.27-2.16-.88-.74.26-1.78-.42-2.44.6.97.69,1.93,1.42,2.96,2.08.21.14.85.16,1,.04.85-.73,1.82-.27,2.74-.23,1.01.04,1.37.5,1.36,1.24-.79.1-1.35-.01-1.77-.51-.36-.43-.82-.57-1.29.02.4.52.79,1.07,1.22,1.6.46.57.96,1.11,1.44,1.67.66-.05,1.23-.1,1.85-.15-.1-.54-.36-1.02-.23-1.42.26-.87-.2-1.57-.62-2.3-.18-.32-.41-.63-.67-1.03,2.02.45,3.86,1.61,4.89,3.07.09.13-.06.37-.09.56q-1.15-.17-1.8.19c.53.58,1.07,1.16,1.6,1.73.4.43.72.93,1.23,1.27,1.14.77,2.55,1.28,3.48,2.27.4.43.97.54,1.52.06.13-.11.33-.17.67-.34.56.83,1.07,1.6,1.59,2.36.07.11.15.28.26.3,1.39.33,1.9,1.37,2.74,2.1,1.62,1.41,3.13,2.91,3.91,4.76.22.51.81,1.22,1.36,1.3,1.44.19,2.44.93,3.65,1.38.37.14.71.39.97.65.49.51.92,1.06,1.4,1.62-1.3-.44-2.28-1.28-3.69-1.63-.41.99,1.32,1.08,1.23,2.01-1.14-.54-2.22-.87-2.61-1.91-.18-.47-.88-.84-1.37-1.22-.61-.48-1.3-.57-1.98-.04-.9-.73-1.72-1.38-2.57-2.06-.56.48-.36.79.01,1.08.34.27.72.52,1.04.8.07.06.01.22.01.34-.47.03-.9.05-1.32.08q-.27-.82-1.15-1.04c-.51,1.13-.47,1.67.26,2.6-.95.61-1.55,1.38-1.55,2.37-.31-.39-.6-.8-.93-1.18-.92-1.09-1.82-2.19-2.78-3.27-.52-.58-.37-1.09.33-1.4.94-.41.64-.89.27-1.37-.41-.52-.97-.86-1.87-.85-1.44.02-2.63-.5-3.67-1.23-.27-.19-.66-.46-.65-.69.03-1.1-.89-1.76-1.74-2.48-.41-.35-.87-.73-.47-1.35,1.81.9,2.43,2.43,3.84,3.63.4-.3.71-.57,1.07-.8.35-.22.75-.38,1.11-.56-.47-.84-1.07-.18-1.64-.25.05-.22,0-.49.16-.61.84-.65.55-1.38.37-2.13-.18-.74-.11-1.52-.95-2.09-.32-.22-.52-.54-.81-.79-.61-.53-1.19-1.09-1.88-1.55-.26-.17-.79-.16-1.18-.12-.35.04-.68.22-.92.31-.49-.17-.85-.29-1.28-.44-.22.8.99,1.32.4,1.99-.93-1.23-1.91-2.44-2.77-3.7-.58-.85-1.44-1.31-2.56-1.64-.58-.17-1.09-.53-1.57-.85-1.38-.96-2.17-2.19-2.66-3.56-.25-.68-1-.95-1.56-.56-.76.53-1.43,1.13-1.99,1.57.07.62.18,1.06.16,1.5-.03.66-.35,1.35-.17,1.96.31,1.01.84,2,1.44,2.94.74,1.17,1.59,2.31,2.48,3.42.68.85,1.41,1.7,2.26,2.45.83.73,1.77,1.37,2.2,2.33.12.26.42.51.72.67,1.03.55,2.05,1.14,3.18,1.54,1.17.42,2.2.89,2.8,1.59.05.63.08,1.1.13,1.58.03.33.26.73.09.96-.5.69-.1,1.29.08,1.94.28,1.02.6,2.06.58,3.09-.02,1.18.38,1.7,1.92,1.84,1.51.14,3.01.35,4.53.49.93.08,1.57.44,2.23.94.64.48,1.48,1.01,2.3,1.09,1.4.14,2.65.44,3.83,1.01.24.11.67-.01,1.02-.03-.04-.27.04-.62-.16-.8-.69-.65-1.49-1.23-2.22-1.85-.99-.84-1.95-1.69-2.93-2.53,1.22.18,1.59-.74,2.45-1.18.36.45.7.87,1.31,1.63.74-1.53,1.55-1.09,2.36-.76.71.29,1.44.36,2.21.1,1.36-.47,2.66-.31,3.93.25.47.21,1.02.33,1.47.55.73.36,1.31.2,1.72-.2.96.24,1.77.52,2.62.64.55.08,1.2-.21,1.72-.1,1.1.23,2.36.43,3.15.98,1.13.79,2.44.86,3.73,1.12.84.17,1.7.34,2.49.63,1.6.58,3.21.71,4.95.5,3.05-.37,5.99-.08,8.76,1.09.95.4,2,.68,3.02.98,1.17.35,2.39.61,3.52,1.02,1.06.38,1.93,1.03,3.23,1.09.71.03,1.66-.15,1.95-.55-.62-.77-1.2-1.45-1.73-2.16-.5-.67-1.09-1.19-2.06-1.55-1.07-.39-2.1-.91-2.97-1.53-3.22-2.29-6.4-4.59-10.11-6.43-2.14-1.06-3.78-2.51-4.79-4.05.21-.45.49-.79.39-.88-.25-.22-.65-.42-1.02-.45-.56-.05-3.75-.56-4.13-.8-.32-.21-.67-.46-.84-.75-.75-1.34-1.62-2.66-1.78-4.16.49.46.97.94,1.9.67.8-.23,1.6-.47,2.4-.7.88-.26,1.11-.16,1.51.49.34.56.77,1.09,1.16,1.63.05.07.08.15.09.17-.24.23-.46.44-.87.82.86.1,1.47.18,2.07.25.33.47.66.95,1,1.42.27.39.65.75.79,1.17.17.5.44.73,1.12.68,1.47-.12,2.53.56,3.88,1.11-1.02.58-.91,1.37-1.16,2.16,1.26.08,2.12.56,2.89,1.26.42.38,1.13.63,1.94.34.36-.13.84-.03,1.27-.03.37,0,.73-.02,1.1-.02.4,0,.81-.03,1.19.04.67.12,1.38.22,1.95.49.51.25,1.11.69,1.17,1.09.09.59-.74.4-1.25.47-1.05.13-1.62.7-2.29,1.52,1.52.09,2.81.17,4.17.26.04-.22.1-.53.16-.84.76,0,1.43-.06,2.07.02.44.06.92.26,1.24.51.94.75,1.79,1.57,2.72,2.33.29.24.69.47,1.09.54,1.63.25,3.19.59,4.48,1.46.15.1.5.21.56.16.5-.4.75-.03,1.07.17.82.51,1.65,1.02,2.77,1.7-.15-.43-.15-.61-.26-.72ZM86.43,103.23c.42.49,1.47.63,1.36,1.49-.21-.02-.36,0-.41-.05-.42-.42-.83-.86-1.24-1.29.09-.05.19-.1.28-.14ZM80.79,102.28c-.4.13-.66.52-1.03.85-1.05-.2-1.89-.54-1.95-1.58.17,0,.31,0,.46,0,.34.02.83.17.99.05.36-.27-.07-.45-.28-.7-.53-.62-.22-1.32-.04-1.99.05-.19.24-.36.38-.56-.33-.32-.62-.61-.98-.96,1.13.19,1.81.69,2.55,1.81-.25-.14-.5-.28-.76-.42-.27.47-.51.89-.8,1.41,1.64.16,2.29,1.09,2.81,2.18-.47-.04-.98-.21-1.34-.09ZM83.25,101.03c.56.25,1.11.5,1.67.75-.88.09-1.32-.29-1.67-.75ZM83.16,100.95c-.74-.57-1.48-1.13-2.21-1.7,1.11.28,1.78.9,2.21,1.7ZM143.78,96.1c-.44-.09-.88-.18-1.32-.27.02-.1.05-.21.07-.31.45.06.9.11,1.35.17-.03.14-.07.28-.1.42ZM149.21,97.75c-.34-.36-.67-.71-1.01-1.07-.93-.97-1.99-1.75-3.66-1.92-.52-.05-1.27-.09-1.34-.85.47-.17.99-.36,1.62-.6-.23-.22-.43-.43-.79-.78.7.11,1.24.19,1.88.3-.03,1.15.95,1.61,2.12,1.98,1.34.43,1.3.46,1.25,1.54-.02.44.09.88.14,1.32-.08.03-.15.05-.23.08ZM151.25,101.97c-.07-.05-.14-.1-.21-.15.05-.07.09-.17.13-.17.09,0,.17.06.26.09-.06.08-.11.16-.17.23ZM150.74,99.07c-.29-.59.22-.73.54-.99.28-.23.39-.59.56-.87.96.7.82.98-1.11,1.86ZM141.48,106.96q-1.06-.21-1.64-1.35c.61.37,1.23.75,1.84,1.12-.07.08-.13.15-.2.23ZM177.19,95.2c.28.45.56.9.85,1.35-.09.04-.19.07-.28.11-.32-.44-.64-.88-.96-1.32.13-.05.26-.1.4-.14ZM156.93,108.28c-.23-.15-.46-.3-.68-.45.06-.06.13-.12.19-.18.24.14.48.28.72.42-.08.07-.15.14-.23.21ZM171.06,93.5c-1.55-1.91-3.79-2.92-6.31-3.64.27-.43.47-.74.67-1.06-.92-.41-1.37.3-2.11.36-2.15-.87-4.04-2.04-5.6-3.54-.47-.45-1.06-.84-1.64-1.21-1.46-.94-2.41-2.15-3.36-3.38.44-.8,1.26-.96,2.16-1.02-.15.69-.3,1.37-.47,2.12.63.3,1.29.65,2,.94.68.28,1.44.05,1.36-.41-.18-.98-.45-1.96-.82-2.91-.09-.23-.67-.36-1.02-.54.24-.22.42-.54.73-.63,1.11-.34,2.96.59,3.08,1.52.08.62.05,1.26.19,1.87.14.57.44,1.12.66,1.64-.72.25-1.38.48-2.15.74.78.87,1.39,1.61,2.1,2.29.23.22.72.26,1.09.39.03-.32.06-.65.09-.96.87.1.93-.03,2.95,1.25.47-.7-.45-1.06-.61-1.72.31.15.54.25.76.37.27.14.54.29.78.42-.1,1.18.47,2,1.68,2.09,1.65.12,2.84.87,3.86,1.68,1.04.83,1.67,1.96,2.3,3.09-.98.21-1.74-1.27-2.38.27ZM174.85,95.11q-1.47.86-1.07,2c.28.79.55,1.57.83,2.36-1.92-.87-2.81-2.14-2.6-3.88.06-.48-.14-.98-.22-1.48.96.04,1.91.09,2.87.1.6.01.88.28,1.05.66.19.42.36.85.54,1.28-.47-.35-.94-.7-1.39-1.04ZM177.18,98.43c-.36-.71-.6-1.45-.88-2.19.63.78,1.27,1.57,1.91,2.37-.48.36-.89.1-1.03-.18ZM186,104.5c-.36-.17-.7-.35-1.04-.53.09-.1.17-.19.26-.29.34.18.69.37,1.03.55-.09.09-.24.27-.25.27ZM193,109.93c-.18-.91-.51-1.69-1.95-1.66-.11,0-.26,0-.31-.06-.18-.19-.38-.38-.45-.6-.03-.1.2-.35.34-.36.23-.02.57.04.71.16.79.74,1.81,1.05,3.01,1.06.43,0,.87-.09,1.29-.05.42.03.83.17,1.35.29-1.03,1.52-2.46,1.45-3.99,1.22ZM198.69,110.5c1.64-.26,2.17.08,2.15,1.46-.78-.53-1.41-.95-2.15-1.46Z"/>
        <path class="cls-3" d="M92.09,77.2s0,0,0,0c0,0,0,0,0,0,0,0,0,0,0,0,0,0,0,0,.01,0Z"/>
        <path class="cls-3" d="M91.6,80.2c.34.65-.05,1.17-.57,1.62-.58.5-1.24.95-1.84,1.45-.21.18-.32.43-.48.65.09.06.19.13.28.19.72-.41,1.57-.74,2.13-1.26,1.22-1.11,2.92-2.1,2.32-3.88-.04-.11.02-.26.08-.37.62-1.11,1.63-1.92,3.17-2.53-.04.53-.07.92-.12,1.57.52-.24.91-.33,1.04-.51.27-.41.52-.86.55-1.31.05-.76.43-1.36.98-1.96.65-.71,1.17-1.48,1.72-2.19-.58-.48-.87-.25-1.18.03-.56.51-1.06,1.08-1.74,1.47-.86.5-1.45,1.11-1.96,1.82-.32.45-.89,1.09-1.39,1.11-1.14.06-1.73.65-2.49,1.09-.32,1.16-1.62,2.06-1.66,3.51.54-.24.85-.37,1.17-.51Z"/>
        <path class="cls-3" d="M150.96,106.26c.52-.11,1.16.11,1.75.14.28.01.57-.06,1.04-.11-.78-1.03-2.23-.99-3.14-1.61-.95-.64-2.09-1.1-3.37-1.76-.33.55-.58.99-.87,1.48.71.44,1.37.8,1.96,1.23.76.55,1.51.88,2.63.64Z"/>
        <path class="cls-3" d="M149.43,108.51c-.21-1.04-.39-1.18-1.83-1.42-.3,1.06-.04,1.28,1.83,1.42Z"/>
        <path class="cls-3" d="M73.01,96.4c-.24.06-.42.29-.8.56.5.36.89.65,1.29.94.2-.2.56-.4.57-.61.02-.48-.64-1-1.06-.89Z"/>
        <path class="cls-3" d="M145.73,103.76c-.44-.43-.81-.79-1.42-1.38-.31,1.3,0,1.56,1.42,1.38Z"/>
        <path class="cls-3" d="M129.11,87.49c-.28-1.09-.48-1.19-1.52-.75.25.56.68.86,1.52.75Z"/>
        <path class="cls-3" d="M186,107.91c.48.05.99.08,1.13-.64-.52-.08-1.04-.17-1.69-.27-.19.62.06.85.56.91Z"/>
        <path class="cls-3" d="M127.21,86.38c.07-.21.29-.5.19-.63-.25-.31-.65-.54-.99-.8-.1.06-.2.12-.3.18.13.36.2.73.41,1.06.07.12.45.13.7.18Z"/>
        <path class="cls-3" d="M73.68,94.59c.11,1.11.15,1.14,1.4.8-.45-.41-.63-.9-1.4-.8Z"/>
        <path class="cls-3" d="M88.26,84.19c-.53.35-.91.61-1.3.87q1.32.16,1.3-.87Z"/>
        <path class="cls-3" d="M84.96,87.03c.91.26,1.31.05,1.46-.65-.78-.1-1.15.14-1.46.65Z"/>
        <path class="cls-3" d="M198.74,116.23c.09.12.54.25.62.19.44-.3.35-.63-.08-.97-.56.11-.86.34-.54.78Z"/>
        <path class="cls-3" d="M201.33,115.7c-.02.07.35.31.4.29.24-.11.42-.28.74-.51-.33-.16-.52-.26-.71-.36-.15.19-.34.38-.42.58Z"/>
        <path class="cls-3" d="M166.51,89.8c.57.26,1.09.5,1.6.74-.18-1.29-.51-1.41-1.6-.74Z"/>
      </g>
      <path class="cls-3" d="M31.18,130.26c62.45,15.32,123.02-18.69,185.69,3.94.17-4.66.65-10.11.82-14.76-64.11-15.07-122.78,22.17-186.51,10.83Z"/>
      <g>
        <path class="cls-3" d="M214.95,148.03c2.51-8.47,3.88-17.43,3.88-26.71,0-51.91-42.24-94.15-94.15-94.15S30.53,69.4,30.53,121.32c0,7.49.9,14.76,2.56,21.75,60.62,24.85,121.24-19.28,181.86,4.96ZM124.68,31.08c49.75,0,90.23,40.48,90.23,90.23,0,3.33-.2,6.62-.55,9.86-69.27-12.9-107.64,33.02-178.94,3.36-.64-4.32-.98-8.73-.98-13.22,0-49.75,40.48-90.23,90.23-90.23Z"/>
        <path class="cls-3" d="M73.7,200.4c14.71,9.51,32.2,15.06,50.98,15.06,31.27,0,59.02-15.34,76.15-38.87-42.38-4.62-84.75,18.96-127.13,23.81Z"/>
      </g>
      <text class="cls-2" transform="translate(0 131.61)"><tspan class="cls-4" x="0" y="0">E</tspan><tspan class="cls-5" x="7.41" y="0">S</tspan><tspan class="cls-6" x="14.57" y="0">T</tspan></text>
      <text class="cls-1" transform="translate(224.31 131.61)"><tspan x="0" y="0">1985</tspan></text>
      <path class="cls-3" d="M59.21,203.2c-11.06,0-22.13-1.6-33.18-5.62-1.34-.48-2.41-1.88-2.88-3.74-.43-1.73-.25-3.47.5-4.66,3.28-5.24,6.71-10.79,10.49-16.97.16-.25.25-1.17-.12-2.01-3.53-7.98-7.07-16.38-10.52-24.99-.62-1.55-.74-3.36-.3-4.71.34-1.05,1-1.82,1.87-2.19.8-.34,1.69-.3,2.51.11,32.01,15.78,64.82,10.47,96.55,5.34,31.47-5.09,64-10.35,96.26,4.44,3.03,1.39,6.01,4.93,5.54,8.2-1.6,11.33-8.43,20.55-12.35,23.69l-.75.6-.93-.22c-28.8-6.87-58.34,1.72-86.9,10.03-21.56,6.27-43.62,12.69-65.76,12.69ZM26.85,142.44c.01.41.1.88.28,1.32,3.44,8.56,6.96,16.93,10.47,24.86.84,1.89.79,4.15-.12,5.64-3.78,6.19-7.22,11.76-10.51,17.01-.08.13-.23.76-.02,1.63.17.68.45,1.01.52,1.06,31.87,11.57,64.68,2.02,96.41-7.2,28.73-8.36,58.44-17,87.92-10.31,3.15-2.95,8.84-10.77,10.23-20.58h0c.15-1.05-1.42-3.23-3.3-4.09-31.16-14.29-63.11-9.12-93.99-4.13-32,5.17-65.09,10.52-97.89-5.2Z"/>
      <g>
        <path class="cls-3" d="M65.06,179.52c.05,0,.11.03.17.1.06.07.11.15.16.25.05.09.09.19.12.29.03.1.05.18.05.23s-.05.15-.15.29c-.1.14-.23.29-.38.47-.16.17-.33.36-.52.56-.19.2-.37.38-.55.55-.18.17-.33.33-.47.46-.14.14-.23.23-.29.27-.09.02-.14.03-.23.05-.32-.14-.62-.3-.89-.47-.28-.17-.52-.39-.72-.64-.2-.25-.36-.55-.48-.9-.12-.35-.18-.76-.18-1.23v-5.69c-2.21.07-3.31.1-5.52.13,0,.47.01.92.02,1.36,0,.43-.02.85-.07,1.24-.05.39-.14.78-.27,1.16-.13.38-.32.76-.58,1.14.08.06.22.18.43.33s.42.32.65.48c.23.17.44.31.63.44.2.13.32.19.36.19.1,0,.19-.03.26-.07.08-.04.15-.09.23-.15.11,0,.16.01.26.02.13.14.2.2.33.34.04.11.06.16.1.26,0,.06-.05.15-.14.27-.09.13-.21.28-.36.44-.15.17-.32.34-.5.52-.18.18-.36.35-.53.52-.17.16-.32.31-.45.44-.13.13-.22.22-.28.26-.11,0-.17,0-.28.01-.55-.48-1.12-.93-1.7-1.33-.59-.4-1.18-.8-1.77-1.19-.05-.13-.08-.19-.13-.32,0-.07.02-.14.06-.22.04-.08.07-.15.09-.22.43-.36.77-.68,1.03-.96.26-.28.45-.59.59-.92.14-.33.23-.72.27-1.16.04-.45.06-1.01.06-1.69,0-1.07,0-2.12-.01-3.15,0-1.03.02-2.02.09-2.97.06-.95.19-1.86.37-2.71.18-.85.47-1.64.86-2.36.39-.72.9-1.36,1.54-1.93.64-.56,1.43-1.03,2.4-1.4,2.37,1.54,3.55,2.28,5.92,3.71.03.02.06.06.1.12.03.06.05.1.05.14,0,.08-.05.17-.14.29-.1.12-.2.23-.33.35-.12.12-.24.23-.36.33s-.2.18-.25.23v13.24c0,.07,0,.14,0,.24,0,.09.02.18.04.27.02.09.05.17.1.22.04.06.1.08.17.08.15-.01.3-.06.44-.16s.27-.21.38-.35c.02-.02.06-.05.1-.08.04-.03.07-.05.1-.05ZM60.69,171.86v-5.82c-1.32-.91-1.98-1.37-3.29-2.32-.53.36-.94.8-1.23,1.32-.29.52-.52,1.11-.67,1.77-.15.66-.24,1.39-.28,2.18-.03.79-.05,1.64-.05,2.55v.4c2.21-.01,3.31-.03,5.52-.09Z"/>
        <path class="cls-3" d="M75.23,179.01c0,.27.05.5.15.69s.21.37.33.55c.12.18.23.37.33.59s.16.5.16.83c0,.52-.15,1.04-.44,1.55-.29.51-.64.99-1.06,1.45-.41.46-.85.87-1.3,1.25-.45.37-.84.69-1.16.95,0-.01.01-.02.02-.03-.14.15-.3.26-.49.31-.13-.06-.31-.12-.53-.19-.22-.07-.47-.14-.74-.21-.27-.07-.55-.14-.85-.21-.29-.07-.58-.13-.85-.19-.27-.06-.52-.1-.74-.13-.22-.03-.4-.03-.53-.02-.06,0-.12-.02-.18-.06-.06-.05-.09-.12-.09-.2,0-.06.04-.15.13-.27.08-.13.19-.27.32-.43.13-.16.27-.32.43-.49.16-.17.31-.34.45-.49.15-.16.28-.3.39-.42.11-.12.2-.21.24-.26.1-.04.14-.05.24-.09.67.16,1.33.31,2,.44.67.13,1.34.29,2,.48.15-.28.29-.58.43-.89.13-.31.19-.63.19-.97,0-.14-.02-.27-.06-.41-.04-.14-.1-.27-.16-.4s-.13-.26-.21-.37c-.07-.12-.14-.23-.19-.33v.03c-.11-.17-.22-.34-.32-.53-.1-.19-.17-.38-.24-.59-.46.4-.9.81-1.33,1.23-.43.42-.87.83-1.33,1.24-.11.01-.17.02-.28.03-.54-.43-1-.94-1.37-1.53-.37-.59-.67-1.24-.9-1.94-.23-.7-.4-1.45-.5-2.24-.1-.79-.15-1.59-.15-2.41,0-.92.12-1.8.35-2.65s.55-1.64.96-2.37c.41-.73.89-1.38,1.45-1.95.55-.57,1.15-1.04,1.8-1.41.07,0,.11,0,.18,0,.09.05.25.13.49.25.23.12.5.25.8.4s.61.31.93.47c.32.17.62.33.88.48.27.15.49.29.66.42s.26.23.26.3c0,.08-.03.17-.1.25-.07.08-.13.17-.21.26-.07.09-.14.2-.21.33-.07.12-.1.28-.1.45v9.47ZM72.82,169.75c-.39-.19-.78-.39-1.17-.62-.39-.22-.77-.43-1.17-.63-.32.77-.55,1.59-.7,2.45-.15.86-.22,1.72-.22,2.58,0,.19.01.48.03.86.02.38.06.8.11,1.25.05.46.12.92.2,1.4.08.48.19.92.31,1.31.12.39.27.71.43.95.16.24.35.35.57.33.09,0,.23-.06.4-.14.18-.08.35-.19.53-.32.18-.13.33-.27.46-.42s.2-.29.2-.43v-8.58Z"/>
        <path class="cls-3" d="M83.65,165.38c.04.1.12.31.26.63s.29.7.47,1.13c.18.43.36.89.55,1.36.19.48.37.91.53,1.32.16.4.3.75.41,1.03.11.28.16.44.16.47,0,.06-.11.19-.33.38-.22.19-.51.41-.85.68-.34.26-.72.55-1.13.85-.41.3-.8.59-1.18.86-.38.27-.72.52-1.01.73-.29.21-.5.36-.6.44.06.35.15.72.25,1.11.11.38.25.74.43,1.05.18.32.4.57.65.76.26.19.57.26.94.22.12-.01.29-.08.51-.18.22-.11.44-.24.67-.38.23-.15.43-.31.63-.47.19-.17.32-.31.39-.44l.13-.05c.05,0,.1.01.15.07.05.05.08.11.12.19.03.08.05.16.07.24.02.08.03.16.03.22,0,.02,0,.05-.01.09,0,.04-.02.07-.03.1-1.42,1.31-2.13,1.98-3.55,3.31-.09.04-.14.05-.23.09-.75-.19-1.38-.58-1.89-1.16-.51-.58-.92-1.27-1.23-2.06s-.53-1.65-.67-2.57c-.13-.92-.2-1.81-.2-2.68,0-1.03.13-1.97.38-2.81.25-.84.61-1.58,1.07-2.21.46-.63,1.02-1.15,1.68-1.56.66-.41,1.39-.7,2.19-.89.11.07.16.1.26.16ZM83.47,171.72c-.74-1.72-1.12-2.59-1.86-4.33-.19.19-.28.29-.47.48-.24.66-.4,1.34-.48,2.04s-.11,1.41-.11,2.11c0,.3,0,.6.03.92.02.31.04.62.07.91,1.12-.86,1.69-1.28,2.81-2.13Z"/>
        <path class="cls-3" d="M111.61,176.06s-.05.13-.14.26c-.1.13-.21.28-.36.46s-.3.36-.47.56c-.17.19-.34.38-.49.55-.16.17-.29.31-.41.42-.12.11-.19.17-.22.18-.11.02-.19-.04-.24-.17-.24-.51-.52-.97-.81-1.37-.3-.4-.65-.78-1.07-1.13-.12.18-.29.35-.52.53-.22.18-.47.35-.75.51-.28.16-.57.31-.87.46-.31.14-.61.27-.91.38-.3.11-.58.2-.84.28-.26.08-.49.13-.67.16-1.22.2-2.28.11-3.18-.28-.9-.38-1.65-.98-2.26-1.79-.6-.81-1.05-1.79-1.35-2.92-.3-1.14-.45-2.36-.45-3.66,0-.92.1-1.81.3-2.67.2-.86.48-1.68.85-2.44.37-.76.81-1.47,1.33-2.11.52-.64,1.09-1.2,1.72-1.68.63-.48,1.3-.86,2.03-1.16.73-.29,1.49-.47,2.28-.54.11-.01.19.09.24.29.04.2.06.44.06.72s0,.54-.02.8c-.02.26-.02.44-.02.55.08-.09.2-.25.38-.47.18-.22.37-.45.57-.68.2-.24.39-.44.57-.63.18-.18.31-.27.39-.28.02,0,.03,0,.06,0,.8.34,1.49.81,2.07,1.43.58.61,1.06,1.31,1.43,2.09.38.78.66,1.62.84,2.51.18.9.27,1.8.27,2.72,0,.54-.06,1.08-.18,1.6-.12.53-.28,1.04-.47,1.56-.2.51-.42,1.01-.67,1.51-.25.49-.52.98-.79,1.45.08.03.2.09.37.18s.35.19.56.31c.2.12.42.25.64.39.22.14.42.28.6.41.18.14.33.27.44.4.12.13.17.24.17.33ZM101.57,160.93c-.46.15-.85.39-1.19.73-.33.34-.61.75-.84,1.21-.23.46-.42.97-.56,1.52-.14.55-.25,1.1-.33,1.66-.08.56-.13,1.11-.15,1.64-.03.54-.04,1.02-.04,1.46,0,.61.03,1.27.09,1.98.06.71.18,1.4.36,2.06.18.67.42,1.27.73,1.82s.71.95,1.21,1.22c.18-.13.31-.26.41-.39.1-.13.17-.26.21-.41.05-.15.07-.3.09-.46.01-.16.02-.35.02-.55v-13.49ZM108.05,169.6c0-.65-.04-1.34-.12-2.08-.08-.73-.22-1.44-.43-2.12s-.49-1.3-.84-1.86c-.36-.56-.81-.99-1.36-1.29-.08,0-.12,0-.2,0-.24.03-.43.12-.56.29-.13.17-.19.39-.19.65v10.77c0,.3-.09.59-.27.86-.18.27-.4.53-.65.76-.25.24-.52.45-.8.64-.28.19-.52.34-.73.46.2.05.4.07.61.06.21,0,.43-.03.65-.06.53-.08,1.05-.26,1.56-.54.51-.28.97-.64,1.38-1.08-.14-.04-.31-.07-.51-.08-.2-.01-.39-.04-.58-.07-.19-.04-.35-.1-.48-.18-.13-.08-.2-.22-.21-.41.06-.11.09-.17.15-.28.22-.14.45-.23.68-.29.23-.06.46-.1.7-.14.22-.03.44-.05.66-.06s.43-.02.65-.02c.3-.62.52-1.27.67-1.93.15-.67.22-1.33.22-2Z"/>
        <path class="cls-3" d="M123.57,172.08c.05,0,.12,0,.18.05.07.04.13.09.19.15.06.06.11.12.14.19.04.07.06.12.06.15,0,.04-.05.12-.14.23-.1.11-.22.24-.37.4-.15.15-.31.31-.49.47-.18.16-.35.32-.51.47-.16.15-.31.28-.44.4-.13.12-.22.2-.28.24-.1.04-.14.06-.24.1-.25-.04-.47-.11-.68-.22-.21-.11-.39-.25-.55-.42-.16-.17-.29-.37-.4-.6-.1-.23-.17-.47-.2-.73-1.29,1.1-1.94,1.66-3.24,2.79-.1.03-.14.04-.24.07-1.09-.52-1.64-.78-2.73-1.32-.05-.08-.08-.12-.13-.2,0-.06.04-.15.13-.27.08-.11.18-.23.29-.35.11-.12.22-.23.33-.33.11-.1.18-.17.23-.23,0-3.07,0-4.61,0-7.68,0-.05,0-.12,0-.22,0-.1-.01-.19-.03-.29-.01-.09-.04-.17-.07-.24-.03-.07-.09-.1-.15-.09-.11.01-.24.09-.36.24-.13.14-.23.26-.3.35-.07.04-.1.06-.17.1-.05,0-.1-.01-.15-.06-.06-.04-.12-.09-.17-.16-.06-.06-.11-.12-.15-.19s-.07-.12-.07-.15c0-.03.05-.12.14-.25s.21-.28.35-.45c.14-.17.3-.36.47-.56.17-.2.34-.39.49-.57.16-.18.3-.34.42-.48.12-.14.21-.24.25-.29.1-.03.15-.05.25-.08.22.08.44.19.65.31.21.12.4.27.56.44.16.17.3.36.4.59.1.22.15.47.15.75,0,3.42,0,5.12,0,8.54.13.09.29.18.48.27.19.09.37.12.53.09.12-.02.25-.09.42-.2.16-.12.33-.25.51-.39.17-.14.34-.29.49-.43.16-.14.29-.26.4-.34v-6.91c0-.12-.04-.19-.12-.21-.08-.02-.17-.03-.26-.03s-.18-.01-.26-.03c-.08-.02-.12-.09-.12-.21v-.21c.03-.07.05-.11.08-.18.96-1.05,1.45-1.57,2.41-2.6.05,0,.12-.02.21-.04.08-.02.16-.03.24-.02.08,0,.14.02.2.06.05.03.08.1.08.19v10.8c0,.08,0,.17.03.27.02.1.08.14.19.13.11-.02.23-.06.34-.13.11-.07.22-.14.32-.22.1-.07.19-.14.27-.21.08-.06.14-.1.18-.11Z"/>
        <path class="cls-3" d="M134.17,166.12c0,.55-.04,1.09-.11,1.62-.08.53-.21,1.05-.4,1.55-.19.5-.45.98-.77,1.45-.32.46-.73.89-1.22,1.3-.07.05-.2.16-.39.33-.19.17-.4.34-.61.52-.22.18-.42.33-.61.47-.19.14-.31.21-.36.21-.72-.08-1.35-.28-1.9-.6-.55-.32-1-.73-1.37-1.24-.37-.51-.64-1.09-.83-1.75-.19-.66-.28-1.36-.28-2.11,0-.9.09-1.71.28-2.43.18-.72.46-1.37.83-1.97.37-.59.84-1.14,1.39-1.64.56-.5,1.21-.98,1.96-1.44.77.02,1.42.21,1.97.55s1.01.78,1.37,1.32c.36.54.63,1.14.8,1.81.17.67.26,1.35.26,2.04ZM131.84,168.05c0-.57-.05-1.16-.14-1.75-.09-.59-.25-1.15-.48-1.67-.23-.52-.53-.98-.91-1.37-.38-.4-.86-.69-1.45-.87-.25.26-.45.56-.6.9-.15.34-.26.69-.34,1.06-.08.37-.13.73-.16,1.1-.02.37-.03.72-.03,1.05,0,.38.02.76.06,1.14.04.38.11.75.2,1.11.1.36.23.7.39,1.02.16.32.37.61.63.86v.03c.09.11.2.22.32.33.12.11.24.21.38.3.13.09.28.17.43.22.15.06.31.08.48.08.24-.22.45-.47.61-.76.16-.29.29-.59.38-.91.09-.32.16-.64.19-.96.03-.32.05-.62.05-.91Z"/>
        <path class="cls-3" d="M145.05,165.48c0,.37-.07.76-.21,1.16-.14.4-.32.79-.56,1.18-.23.39-.51.78-.81,1.16-.31.38-.64.74-.98,1.08-.34.34-.69.66-1.05.95-.36.29-.69.55-1.02.76-.66-.05-1.25-.22-1.77-.51-.52-.29-.96-.66-1.32-1.12-.36-.46-.64-.98-.83-1.56-.19-.59-.29-1.2-.29-1.83,0-.59.08-1.17.23-1.75.15-.58.38-1.14.67-1.66.29-.52.66-1.01,1.08-1.45.43-.44.92-.81,1.47-1.11-.25-.14-.51-.31-.8-.5-.29-.19-.56-.4-.81-.64s-.46-.49-.63-.78c-.17-.29-.25-.59-.25-.92,0-.25.09-.51.28-.77.18-.26.41-.5.68-.73.27-.22.55-.41.86-.56.3-.15.61-.29.8-.28.13,0,.26.11.31.22.05.11.08.24.08.39,0,.06-.05.1-.16.14s-.22.08-.34.14c-.12.06-.24.13-.34.22s-.16.22-.16.39c0,.16.12.35.36.57.24.22.54.46.91.74.37.28.77.58,1.22.91.44.33.87.69,1.29,1.08.42.39.79.81,1.13,1.25.34.44.58.92.72,1.42.11.39.18.79.21,1.2.03.41.05.81.05,1.23ZM142.61,166.63c0-.48-.03-.98-.1-1.49-.07-.51-.18-1.01-.34-1.48-.16-.47-.37-.92-.64-1.33-.27-.41-.6-.75-1.01-1.03-.41.32-.73.66-.98,1.02-.25.36-.43.74-.56,1.13-.13.39-.21.8-.25,1.23s-.06.86-.06,1.31c0,.4.05.83.16,1.28.11.45.28.85.51,1.22s.53.64.9.85c.36.21.8.27,1.31.19.18-.03.34-.17.47-.42s.24-.54.33-.86c.09-.32.15-.64.2-.95.04-.31.06-.53.06-.67Z"/>
        <path class="cls-3" d="M167.62,165.58c.05,0,.11.01.17.06.06.04.11.09.16.15.05.06.09.12.12.18.03.06.05.11.05.15s-.05.1-.15.2c-.1.1-.23.21-.38.33-.16.12-.33.26-.52.4-.19.14-.37.28-.55.4-.18.12-.33.24-.47.34-.14.1-.23.17-.29.2-.09.02-.14.03-.23.05-.32-.07-.62-.15-.89-.24-.28-.09-.52-.21-.72-.36-.2-.15-.36-.33-.48-.55-.12-.22-.18-.48-.18-.8v-3.75c-2.21.22-3.31.33-5.52.57,0,.31.01.61.02.9,0,.29-.02.57-.07.83-.05.27-.14.54-.27.8-.13.27-.32.54-.58.82.08.03.22.09.42.18.21.08.42.17.65.25.23.09.44.16.63.23.2.06.32.09.36.09.1-.01.19-.04.26-.07.08-.04.15-.08.23-.12.11,0,.16,0,.26-.01.13.08.2.11.33.19.04.07.06.1.1.16,0,.04-.05.1-.14.19-.09.09-.21.2-.36.33-.15.13-.32.26-.5.4-.18.14-.36.27-.53.4-.17.13-.32.24-.45.34-.13.1-.22.17-.28.21-.11.02-.17.02-.28.04-.55-.26-1.12-.49-1.7-.69-.59-.2-1.18-.4-1.77-.58-.05-.08-.08-.12-.13-.2,0-.05.02-.1.06-.16.04-.06.07-.11.09-.16.43-.29.77-.55,1.03-.77.26-.22.45-.45.59-.68.14-.24.23-.51.27-.81.04-.3.06-.68.06-1.13,0-.72,0-1.42-.01-2.1s.02-1.35.09-1.99c.07-.64.19-1.26.37-1.85.18-.59.47-1.14.86-1.66.39-.52.9-.99,1.54-1.42.64-.43,1.43-.8,2.4-1.11,2.37.85,3.55,1.27,5.92,2.1.03.01.06.04.1.07.03.04.05.07.05.09,0,.05-.05.11-.14.2-.1.08-.2.16-.33.24-.12.08-.24.16-.36.24-.12.08-.2.13-.25.16v8.69s0,.09,0,.16c0,.06.02.12.04.18.02.06.05.11.1.14.04.03.1.05.17.04.15-.02.3-.06.44-.13s.27-.16.38-.26c.02-.02.06-.04.1-.06.04-.02.07-.03.1-.04ZM163.25,160.84v-3.84c-1.32-.51-1.98-.77-3.29-1.3-.53.28-.94.61-1.23.98-.29.37-.52.79-.67,1.24-.15.45-.24.95-.28,1.48-.03.53-.05,1.1-.05,1.7v.27c2.21-.23,3.31-.33,5.52-.53Z"/>
        <path class="cls-3" d="M177.79,164.85c0,.18.05.32.15.44.1.12.21.23.33.35.12.11.23.24.33.38.1.14.16.32.16.53,0,.34-.15.67-.44,1-.29.33-.64.65-1.06.96-.41.31-.85.59-1.3.84-.45.26-.84.48-1.16.66,0,0,.01-.01.02-.02-.14.1-.3.18-.49.22-.13-.03-.31-.07-.53-.1-.22-.04-.47-.07-.74-.1-.27-.03-.55-.07-.85-.1-.29-.03-.58-.06-.85-.08-.27-.02-.52-.04-.74-.04-.22,0-.4,0-.53.02-.06,0-.12,0-.18-.03-.06-.03-.09-.07-.09-.13,0-.04.04-.1.13-.18.08-.09.19-.19.32-.3.13-.11.27-.23.43-.35.16-.12.31-.24.45-.35.15-.11.28-.21.39-.29.11-.08.2-.14.24-.18.1-.03.14-.04.24-.07.67.07,1.33.14,2,.2.67.06,1.34.14,2,.24.15-.19.29-.38.43-.58.13-.2.19-.41.19-.63,0-.09-.02-.18-.06-.26-.04-.09-.1-.17-.16-.26s-.13-.16-.21-.24c-.07-.08-.14-.14-.19-.21v.02c-.11-.11-.22-.22-.32-.33-.1-.12-.17-.24-.24-.37-.46.27-.9.55-1.33.84-.43.29-.87.57-1.33.85-.11.01-.17.02-.28.03-.54-.25-1-.57-1.37-.93-.37-.37-.67-.77-.9-1.22-.23-.45-.4-.93-.5-1.43s-.15-1.03-.15-1.56c0-.6.12-1.18.35-1.75s.55-1.09.96-1.58.89-.93,1.45-1.31c.55-.39,1.15-.7,1.8-.95.07,0,.11,0,.18,0,.09.03.25.08.49.15.23.07.5.16.8.25.3.09.61.19.93.3.32.11.62.21.88.3.27.1.49.19.66.27s.26.15.26.19c0,.05-.03.11-.1.16s-.13.11-.21.17c-.07.06-.14.13-.21.21-.07.08-.1.18-.1.29v6.09ZM175.38,158.92c-.39-.12-.78-.24-1.17-.38-.39-.14-.77-.26-1.17-.38-.32.51-.55,1.05-.7,1.61-.15.57-.22,1.13-.22,1.68,0,.12.01.31.03.55.02.25.06.52.11.81.05.29.12.6.2.9.08.31.19.59.31.84.12.25.27.45.43.6s.35.22.57.2c.09,0,.23-.04.4-.1.18-.06.35-.13.53-.22.18-.09.33-.18.47-.28s.2-.19.2-.28v-5.54Z"/>
        <path class="cls-3" d="M185.21,164.13c.05,0,.12.01.18.05.07.04.13.08.19.14.06.05.11.11.15.16s.07.11.07.14c0,.03-.05.09-.16.18-.11.09-.24.18-.4.3-.16.11-.34.23-.54.35-.2.12-.39.24-.57.35-.18.11-.34.21-.49.3-.15.09-.24.15-.3.18-.1.01-.15.02-.25.04-.5-.13-.86-.34-1.08-.63-.22-.29-.33-.64-.33-1.05v-6.27c-.04-.06-.06-.09-.09-.16-.08,0-.17.03-.25.09-.08.06-.16.1-.22.15,0,0,.01-.01.02-.02-.05.02-.12.06-.18.11-.07.05-.13.07-.2.08-.09,0-.17-.02-.24-.09-.07-.06-.13-.11-.2-.15-.04-.06-.06-.09-.1-.16,0-.03.05-.1.15-.2.1-.1.23-.22.38-.35.15-.13.32-.28.51-.42.19-.15.37-.29.53-.42.17-.13.32-.25.45-.35.13-.1.22-.17.27-.21.08-.03.12-.04.21-.06.04,0,.12.03.24.09s.26.14.41.24c.16.1.32.21.5.32.18.12.34.23.5.34.16.11.3.2.42.29.12.08.21.14.25.17.04.05.06.08.1.13,0,.05-.04.09-.12.15-.08.05-.17.1-.28.15-.11.05-.22.09-.33.13-.11.04-.2.08-.26.1,0,2.26,0,3.39,0,5.65,0,.11.03.21.08.31.05.09.17.14.34.13.08,0,.16-.03.24-.06s.14-.08.2-.14c.07-.03.1-.05.17-.08ZM184.17,154.1c0,.16-.03.32-.1.48-.07.16-.16.31-.26.46-.1.15-.22.29-.34.43-.13.14-.25.27-.37.39-.08.04-.12.05-.21.09-.06,0-.1,0-.16,0-.07-.03-.11-.04-.18-.07-.11-.09-.22-.2-.35-.34-.13-.13-.25-.27-.36-.42-.11-.15-.21-.3-.29-.46-.08-.15-.12-.3-.12-.43,0-.36.13-.62.38-.78.25-.16.6-.24,1.03-.24.17,0,.33.02.49.05s.3.09.43.16c.13.07.23.16.3.27s.11.24.11.39Z"/>
        <path class="cls-3" d="M194.96,157.88c-.07.05-.19.15-.36.27-.17.13-.35.26-.54.4-.19.14-.37.26-.54.36-.18.1-.3.16-.38.16-.02,0-.11-.03-.28-.1-.17-.07-.38-.15-.63-.24-.25-.1-.52-.2-.81-.32-.29-.12-.57-.23-.83-.33-.26-.1-.48-.19-.67-.27-.19-.08-.3-.12-.34-.14-.18.18-.32.37-.4.58-.08.21-.12.42-.12.65,0,.18.08.34.25.47.16.13.38.24.65.34.27.1.57.19.91.28.34.08.69.17,1.04.27.36.1.7.21,1.04.33.34.12.64.27.91.43.27.17.48.37.65.59.16.23.25.49.25.81,0,.42-.1.78-.3,1.1-.2.32-.47.6-.8.87s-.7.51-1.1.73c-.41.23-.81.46-1.21.7-.09.01-.13.02-.22.03-.36-.07-.71-.17-1.04-.3-.34-.13-.68-.25-1.02-.37-.34-.12-.69-.22-1.05-.3-.36-.08-.8-.06-1.13-.09-.05,0-.13-.05-.2-.09-.07-.04-.11-.09-.11-.14,0-.05.07-.13.22-.26.15-.13.32-.27.52-.42.19-.15.38-.29.56-.42.18-.13.29-.22.36-.26.11-.02.17-.03.29-.05,1.52.5,2.28.75,3.8,1.25.2-.13.38-.28.53-.46.16-.17.24-.37.24-.58,0-.24-.09-.45-.26-.61-.17-.17-.4-.31-.68-.44-.28-.13-.61-.24-.97-.35-.36-.1-.73-.21-1.11-.31-.38-.11-.75-.22-1.11-.35-.36-.12-.69-.27-.97-.45-.28-.17-.51-.38-.68-.63-.17-.24-.26-.53-.26-.87s.12-.67.36-.99.54-.61.9-.88c.36-.27.74-.52,1.15-.73.41-.22.79-.4,1.13-.55.1,0,.14,0,.24,0,.25.11.55.24.88.39.33.15.68.29,1.03.42.35.13.7.25,1.05.35.35.1.66.15.95.16.06.04.09.06.15.1.04.11.06.17.09.28Z"/>
      </g>
      <circle class="cls-3" cx="12.41" cy="113.32" r="2.2"/>
      <circle class="cls-3" cx="236.47" cy="113.32" r="2.2"/>
    </g>
  </g>
</svg>
